# xmcd
#
# Track frame offsets: 
#        150
#        22043
#        51554
#        72640
#        94139
#        117752
#        137150
#        165291
#        198404
#
# Disc length: 2920 seconds
#
# Revision: 0
# Processed by: cddbd v1.5.2PL0 Copyright (c) Steve Scherf et al.
# Submitted via: ExactAudioCopy v0.95b1
#
DISCID=810b6609
DTITLE=The Forster-King Band - Keep the Music Playing
DYEAR=2006
DGENRE=Blues
TTITLE0=Too Far
TTITLE1=I Know That it's Wrong
TTITLE2=Caldonia
TTITLE3=No Promises
TTITLE4=Hope She's Thinking of Me
TTITLE5=Peace Brother Peace
TTITLE6=When You Gonna Realise
TTITLE7=One Foot in the Blues
TTITLE8=Everything Gonna Be Alright
EXTD=
EXTT0=
EXTT1=
EXTT2=
EXTT3=
EXTT4=
EXTT5=
EXTT6=
EXTT7=
EXTT8=
PLAYORDER=
